<svg width="28" height="27" viewBox="0 0 28 27" fill="none" xmlns="http://www.w3.org/2000/svg">
<path fill-rule="evenodd" clip-rule="evenodd" d="M8.0625 1.03312C8.0625 0.6765 8.0625 0.498125 7.99 0.361125C7.92762 0.243 7.82263 0.143125 7.7015 0.0866246C7.561 0.0211246 7.3885 0.0298758 7.04363 0.0471258C5.69475 0.114876 4.76312 0.279625 3.975 0.68125C2.799 1.28038 1.84288 2.2365 1.24375 3.4125C0.842125 4.20062 0.677376 5.13225 0.609626 6.48113C0.592376 6.826 0.583625 6.9985 0.649125 7.139C0.705625 7.26013 0.8055 7.36512 0.923625 7.4275C1.06063 7.5 1.239 7.5 1.59562 7.5H7.0625C7.4125 7.5 7.5875 7.5 7.72125 7.43187C7.83887 7.372 7.9345 7.27637 7.99437 7.15875C8.0625 7.025 8.0625 6.85 8.0625 6.5V1.03312ZM1.18762 9.375C1.18737 9.375 1.18775 9.375 1.18762 9.375C0.842874 9.37525 0.56275 9.65488 0.5625 9.99963C0.5625 9.9995 0.5625 9.99975 0.5625 9.99963V16.875C0.5625 16.8749 0.5625 16.8751 0.5625 16.875C0.56275 17.2197 0.842376 17.4998 1.18713 17.5C1.18688 17.5 1.18725 17.5 1.18713 17.5H7.0625C7.4125 17.5 7.5875 17.5 7.72125 17.4319C7.83887 17.372 7.9345 17.2764 7.99437 17.1588C8.0625 17.025 8.0625 16.85 8.0625 16.5V10.375C8.0625 10.025 8.0625 9.85 7.99437 9.71625C7.9345 9.59863 7.83887 9.503 7.72125 9.44313C7.5875 9.375 7.4125 9.375 7.0625 9.375H1.18762ZM1.59562 19.375C1.239 19.375 1.06063 19.375 0.923625 19.4475C0.8055 19.5099 0.705625 19.6149 0.649125 19.736C0.583625 19.8765 0.592376 20.049 0.609626 20.3939C0.677376 21.7428 0.842125 22.6744 1.24375 23.4625C1.84288 24.6385 2.799 25.5946 3.975 26.1938C4.76312 26.5954 5.69475 26.7601 7.04363 26.8279C7.3885 26.8451 7.561 26.8539 7.7015 26.7884C7.82263 26.7319 7.92762 26.632 7.99 26.5139C8.0625 26.3769 8.0625 26.1985 8.0625 25.8419V20.375C8.0625 20.025 8.0625 19.85 7.99437 19.7162C7.9345 19.5986 7.83887 19.503 7.72125 19.4431C7.5875 19.375 7.4125 19.375 7.0625 19.375H1.59562ZM9.9375 26.2499C9.9375 26.2498 9.9375 26.2501 9.9375 26.2499C9.93775 26.5946 10.2174 26.8748 10.5621 26.875C10.562 26.875 10.5623 26.875 10.5621 26.875H17.4375C17.4374 26.875 17.4376 26.875 17.4375 26.875C17.7822 26.8748 18.0623 26.5951 18.0625 26.2504C18.0625 26.2503 18.0625 26.2506 18.0625 26.2504V20.375C18.0625 20.025 18.0625 19.85 17.9944 19.7162C17.9345 19.5986 17.8389 19.503 17.7213 19.4431C17.5875 19.375 17.4125 19.375 17.0625 19.375H10.9375C10.5875 19.375 10.4125 19.375 10.2788 19.4431C10.1611 19.503 10.0655 19.5986 10.0056 19.7162C9.9375 19.85 9.9375 20.025 9.9375 20.375V26.2499ZM19.9375 25.8419C19.9375 26.1985 19.9375 26.3769 20.01 26.5139C20.0724 26.632 20.1774 26.7319 20.2985 26.7884C20.439 26.8539 20.6115 26.8451 20.9564 26.8279C22.3053 26.7601 23.2369 26.5954 24.025 26.1938C25.201 25.5946 26.1571 24.6385 26.7563 23.4625C27.1579 22.6744 27.3226 21.7428 27.3904 20.3939C27.4076 20.049 27.4164 19.8765 27.3509 19.736C27.2944 19.6149 27.1945 19.5099 27.0764 19.4475C26.9394 19.375 26.761 19.375 26.4044 19.375H20.9375C20.5875 19.375 20.4125 19.375 20.2787 19.4431C20.1611 19.503 20.0655 19.5986 20.0056 19.7162C19.9375 19.85 19.9375 20.025 19.9375 20.375V25.8419ZM26.8124 17.5C26.8123 17.5 26.8126 17.5 26.8124 17.5C27.1571 17.4998 27.4373 17.2201 27.4375 16.8754C27.4375 16.8753 27.4375 16.8755 27.4375 16.8754V10C27.4375 9.99988 27.4375 10.0001 27.4375 10C27.4373 9.65525 27.1576 9.37525 26.8129 9.375C26.8128 9.375 26.8131 9.375 26.8129 9.375H20.9375C20.5875 9.375 20.4125 9.375 20.2787 9.44313C20.1611 9.503 20.0655 9.59863 20.0056 9.71625C19.9375 9.85 19.9375 10.025 19.9375 10.375V16.5C19.9375 16.85 19.9375 17.025 20.0056 17.1588C20.0655 17.2764 20.1611 17.372 20.2787 17.4319C20.4125 17.5 20.5875 17.5 20.9375 17.5H26.8124ZM26.4044 7.5C26.761 7.5 26.9394 7.5 27.0764 7.4275C27.1945 7.36512 27.2944 7.26013 27.3509 7.139C27.4164 6.9985 27.4076 6.826 27.3904 6.48113C27.3226 5.13225 27.1579 4.20062 26.7563 3.4125C26.1571 2.2365 25.201 1.28038 24.025 0.68125C23.2369 0.279625 22.3053 0.114876 20.9564 0.0471258C20.6115 0.0298758 20.439 0.0211246 20.2985 0.0866246C20.1774 0.143125 20.0724 0.243 20.01 0.361125C19.9375 0.498125 19.9375 0.6765 19.9375 1.03312V6.5C19.9375 6.85 19.9375 7.025 20.0056 7.15875C20.0655 7.27637 20.1611 7.372 20.2787 7.43187C20.4125 7.5 20.5875 7.5 20.9375 7.5H26.4044ZM18.0625 0.625124C18.0625 0.624874 18.0625 0.625249 18.0625 0.625124C18.0623 0.280374 17.7826 0.00025 17.4379 0C17.4378 0 17.438 0 17.4379 0H10.5625C10.5624 0 10.5626 0 10.5625 0C10.2177 0.00025 9.93775 0.279876 9.9375 0.624626C9.9375 0.624376 9.9375 0.624751 9.9375 0.624626V6.5C9.9375 6.85 9.9375 7.025 10.0056 7.15875C10.0655 7.27637 10.1611 7.372 10.2788 7.43187C10.4125 7.5 10.5875 7.5 10.9375 7.5H17.0625C17.4125 7.5 17.5875 7.5 17.7213 7.43187C17.8389 7.372 17.9345 7.27637 17.9944 7.15875C18.0625 7.025 18.0625 6.85 18.0625 6.5V0.625124ZM10.9375 17.5C10.5875 17.5 10.4125 17.5 10.2788 17.4319C10.1611 17.372 10.0655 17.2764 10.0056 17.1588C9.9375 17.025 9.9375 16.85 9.9375 16.5V10.375C9.9375 10.025 9.9375 9.85 10.0056 9.71625C10.0655 9.59863 10.1611 9.503 10.2788 9.44313C10.4125 9.375 10.5875 9.375 10.9375 9.375H17.0625C17.4125 9.375 17.5875 9.375 17.7213 9.44313C17.8389 9.503 17.9345 9.59863 17.9944 9.71625C18.0625 9.85 18.0625 10.025 18.0625 10.375V16.5C18.0625 16.85 18.0625 17.025 17.9944 17.1588C17.9345 17.2764 17.8389 17.372 17.7213 17.4319C17.5875 17.5 17.4125 17.5 17.0625 17.5H10.9375Z" fill="black"/>
</svg>
