<svg width="32" height="32" viewBox="0 0 32 32" fill="none" xmlns="http://www.w3.org/2000/svg">
<path d="M31 16C31 17.28 29.4275 18.335 29.1125 19.515C28.7875 20.735 29.61 22.435 28.9925 23.5025C28.365 24.5875 26.4775 24.7175 25.5975 25.5975C24.7175 26.4775 24.5875 28.365 23.5025 28.9925C22.435 29.61 20.735 28.7875 19.515 29.1125C18.335 29.4275 17.28 31 16 31C14.72 31 13.665 29.4275 12.485 29.1125C11.265 28.7875 9.565 29.61 8.4975 28.9925C7.4125 28.365 7.2825 26.4775 6.4025 25.5975C5.5225 24.7175 3.635 24.5875 3.0075 23.5025C2.39 22.435 3.2125 20.735 2.8875 19.515C2.5725 18.335 1 17.28 1 16C1 14.72 2.5725 13.665 2.8875 12.485C3.2125 11.265 2.39 9.565 3.0075 8.4975C3.635 7.4125 5.5225 7.2825 6.4025 6.4025C7.2825 5.5225 7.4125 3.635 8.4975 3.0075C9.565 2.39 11.265 3.2125 12.485 2.8875C13.665 2.5725 14.72 1 16 1C17.28 1 18.335 2.5725 19.515 2.8875C20.735 3.2125 22.435 2.39 23.5025 3.0075C24.5875 3.635 24.7175 5.5225 25.5975 6.4025C26.4775 7.2825 28.365 7.4125 28.9925 8.4975C29.61 9.565 28.7875 11.265 29.1125 12.485C29.4275 13.665 31 14.72 31 16Z" fill="black"/>
<path d="M20.335 11.53L14.625 17.24L11.665 14.2825C11.0225 13.64 9.98 13.64 9.3375 14.2825C8.695 14.925 8.695 15.9675 9.3375 16.61L13.49 20.7625C14.115 21.3875 15.13 21.3875 15.755 20.7625L22.66 13.8575C23.3025 13.215 23.3025 12.1725 22.66 11.53C22.0175 10.8875 20.9775 10.8875 20.335 11.53Z" fill="#FFFCEE"/>
</svg>
