<svg width="48" height="15" viewBox="0 0 48 15" fill="none" xmlns="http://www.w3.org/2000/svg">
<g clip-path="url(#clip0_523_1555)">
<path d="M36.4111 10.783C36.2023 11.8755 35.9933 12.9682 35.7841 14.0612C35.7595 14.1882 35.7393 14.3161 35.7106 14.4415C35.6893 14.5348 35.6397 14.6654 35.7072 14.7513C35.7327 14.7756 35.7633 14.794 35.7967 14.8052C35.8302 14.8164 35.8657 14.8201 35.9008 14.8161C36.0257 14.8186 36.1508 14.8161 36.2751 14.8161H39.6336C39.7281 14.8161 39.8566 14.8406 39.9335 14.7697C40.012 14.6975 40.0146 14.5662 40.0332 14.4686C40.0855 14.195 40.1379 13.9215 40.1903 13.6481C40.2952 13.0977 40.4003 12.5473 40.5057 11.9966L40.6619 11.1796C40.6872 11.0466 40.8123 10.7175 40.6119 10.6534C40.5365 10.639 40.4593 10.6359 40.383 10.6442H37.1766C37.0075 10.6442 36.8378 10.6458 36.6688 10.6436C36.5614 10.6426 36.4356 10.656 36.4111 10.783Z" fill="#1F1F1F"/>
<path d="M48 5.3129C47.9745 4.19859 47.9489 3.08458 47.9231 1.97087C47.9164 1.69053 47.9099 1.41053 47.9036 1.1309C47.8977 0.88261 47.9146 0.621696 47.8842 0.374327C47.8825 0.334064 47.8667 0.295658 47.8395 0.265818C47.8123 0.235978 47.7755 0.216596 47.7354 0.211058C47.6075 0.200944 47.4789 0.200944 47.3509 0.211058H44.0076C43.897 0.211058 43.7441 0.183259 43.64 0.222065C43.5497 0.25565 43.5294 0.359157 43.5133 0.442484C43.3055 1.5299 43.0974 2.61723 42.889 3.7045C42.4707 5.89264 42.0522 8.08082 41.6334 10.269C41.4231 11.3697 41.2127 12.4704 41.0023 13.5711C40.9508 13.8421 40.8984 14.1129 40.8469 14.384C40.829 14.4791 40.7734 14.6154 40.8131 14.7096C40.8511 14.7997 40.9517 14.8174 41.0386 14.8174H44.7808C44.8662 14.8174 44.9769 14.8208 45.0293 14.7392C45.0868 14.65 45.0884 14.5001 45.1088 14.3974C45.1357 14.2594 45.1637 14.1213 45.1907 13.9833C45.4069 12.891 45.6232 11.7989 45.8395 10.7069C46.0516 9.63475 46.264 8.56284 46.4766 7.49118C46.5281 7.23012 46.5805 6.9685 46.6324 6.70801C46.6585 6.57748 46.6838 6.44695 46.7103 6.31586C46.7324 6.20649 46.734 6.04986 46.8049 5.95898C46.8701 5.87566 46.9985 5.84708 47.0914 5.80842L47.4818 5.64692C47.5975 5.59887 47.714 5.55089 47.8298 5.50305C47.9164 5.46523 48.0027 5.41641 48 5.3129Z" fill="#1F1F1F"/>
<path d="M30.1874 9.6026C30.3057 9.6026 30.3522 9.49239 30.3733 9.39396C30.4036 9.25419 30.4248 9.11103 30.4526 8.97063C30.5295 8.58181 30.6067 8.19298 30.6841 7.80412C30.8414 7.01286 30.9982 6.22145 31.1548 5.42991H26.986C26.9425 5.42774 26.8997 5.44154 26.8658 5.46867C26.8319 5.49581 26.8091 5.53441 26.8018 5.57716C26.7697 5.69908 26.7528 5.82714 26.7291 5.9511C26.6243 6.49674 26.5198 7.04237 26.4156 7.58801C26.3143 8.11812 26.2129 8.64802 26.1115 9.17771C26.0902 9.28644 26.0202 9.4811 26.1216 9.56916C26.1917 9.6299 26.3199 9.60443 26.4038 9.60443H26.8398C27.9551 9.60274 29.071 9.60213 30.1874 9.6026Z" fill="#1F1F1F"/>
<path d="M31.944 0.213722H28.2162C28.1181 0.213722 27.9601 0.181761 27.8748 0.239053C27.8217 0.287011 27.7896 0.353728 27.7852 0.424969C27.7598 0.557897 27.7345 0.690893 27.7092 0.823962C27.6036 1.3743 27.4983 1.92499 27.3932 2.47604C27.2893 3.01955 27.1854 3.56283 27.0815 4.10588C27.0647 4.19337 27.0478 4.28608 27.1311 4.34577C27.2191 4.408 27.3441 4.38811 27.4446 4.38811H30.7789C30.9014 4.38811 31.0239 4.38895 31.1465 4.38811C31.2244 4.38726 31.3165 4.37971 31.3603 4.30563C31.39 4.23463 31.4079 4.15931 31.4135 4.0826C31.432 3.98579 31.4507 3.88899 31.4693 3.79148C31.5065 3.59703 31.5436 3.40173 31.5808 3.20735L31.8064 2.02829C31.8816 1.63529 31.9568 1.24229 32.0321 0.849292C32.0681 0.704186 32.0941 0.556809 32.11 0.408178C32.113 0.298393 32.0649 0.213722 31.944 0.213722Z" fill="#1F1F1F"/>
<path d="M36.5285 9.60086C37.539 9.60086 38.5723 9.41989 39.4578 8.91407C40.2839 8.43633 40.9356 7.70877 41.3184 6.83704C41.512 6.38409 41.6454 5.90794 41.7155 5.42062C41.8034 4.87106 41.9225 4.32651 42.0289 3.78041C42.2418 2.69469 42.4545 1.60928 42.6668 0.524169C42.6886 0.450903 42.6889 0.372945 42.6677 0.299517C42.6263 0.196787 42.5114 0.211959 42.4201 0.211959H38.6801C38.5796 0.211959 38.418 0.179221 38.3353 0.250553C38.2645 0.312149 38.2585 0.420592 38.2424 0.504554C38.2154 0.647641 38.1884 0.791644 38.1613 0.934591C38.1089 1.2107 38.0568 1.48648 38.005 1.76193C37.7973 2.86261 37.5897 3.96343 37.3823 5.06439C37.3646 5.15872 37.3654 5.29722 37.2927 5.36989C37.2295 5.41819 37.1496 5.43969 37.0705 5.42972C36.9421 5.42972 36.812 5.44475 36.6836 5.43481C36.5687 5.42641 36.4276 5.38541 36.4453 5.24289C36.4774 4.97859 36.5458 4.71372 36.5957 4.45167C36.8044 3.35843 37.0134 2.26521 37.2226 1.17202C37.2471 1.04323 37.2716 0.91446 37.2962 0.785719C37.3245 0.66751 37.3462 0.547828 37.3612 0.427224C37.3673 0.394567 37.3657 0.360919 37.3563 0.329033C37.3469 0.297147 37.33 0.267933 37.3071 0.243779C37.226 0.178092 37.0638 0.211744 36.9683 0.211744H33.2241C33.1837 0.212299 33.1449 0.227068 33.1144 0.253426C33.084 0.279784 33.0638 0.316031 33.0576 0.35575C32.9884 0.59811 32.9585 0.857266 32.9115 1.10365C32.7019 2.20103 32.4921 3.29846 32.282 4.39594C32.0725 5.49247 31.8627 6.58913 31.6526 7.6859C31.5478 8.23449 31.4428 8.78321 31.3375 9.33205C31.2851 9.60637 31.2327 9.88069 31.1803 10.155C31.1591 10.2679 31.1431 10.3831 31.1135 10.4942C31.1081 10.5355 31.0879 10.5735 31.0567 10.6013C31.0256 10.6291 30.9854 10.6449 30.9435 10.6457C29.8359 10.6457 28.7285 10.6451 27.6214 10.644H25.9628C25.8361 10.644 25.7093 10.644 25.5827 10.6449C25.4619 10.6559 25.3403 10.6531 25.2202 10.6365C25.1829 10.6312 25.1484 10.6136 25.1223 10.5864C25.0962 10.5592 25.0801 10.524 25.0766 10.4866C25.0723 10.3596 25.1256 10.2131 25.1501 10.0885C25.3673 8.99203 25.5845 7.89547 25.8018 6.79879C25.9099 6.25248 26.0206 5.70708 26.1253 5.16097C26.1749 4.9009 26.2563 4.62651 26.2563 4.36143C26.2538 4.09357 26.2334 3.82617 26.1955 3.56097C26.0637 2.60409 25.6733 1.68002 24.9154 1.05066C24.5373 0.742152 24.0996 0.514383 23.6294 0.381502C23.3814 0.309389 23.1275 0.259242 22.8707 0.231644C22.6241 0.213016 22.3768 0.207386 22.1297 0.21478C21.0178 0.21478 19.9057 0.214522 18.7934 0.214005H17.9597C17.8769 0.214005 17.7797 0.197072 17.7063 0.245967C17.6192 0.303964 17.6218 0.434561 17.604 0.526284C17.4993 1.07408 17.3945 1.62169 17.2897 2.16911C16.8715 4.35386 16.4538 6.53837 16.0367 8.72265C16.0122 8.85142 15.9876 8.98096 15.9623 9.10979C15.9421 9.21746 15.9006 9.33698 15.9133 9.44733C15.9146 9.48243 15.9275 9.51612 15.9499 9.54321C15.9724 9.57029 16.0032 9.58926 16.0375 9.59719C16.1708 9.61118 16.3052 9.61258 16.4388 9.60136H19.772C19.8694 9.61025 19.9675 9.60774 20.0644 9.59388C20.1726 9.56756 20.1996 9.46843 20.2148 9.37085C20.2545 9.11325 20.3128 8.85826 20.3636 8.60327C20.5799 7.51332 20.7995 6.42513 21.0099 5.33447C21.0615 5.06678 21.1122 4.79825 21.1637 4.53013C21.1722 4.48979 21.1945 4.45364 21.2268 4.42789C21.2591 4.40214 21.2994 4.38839 21.3408 4.38902C21.4709 4.37639 21.6061 4.38655 21.7362 4.38655C21.8917 4.38655 21.9133 4.52957 21.8992 4.65509C21.8806 4.81151 21.8341 4.96723 21.8054 5.12203C21.5984 6.20859 21.3906 7.29516 21.182 8.38172C21.0782 8.92641 20.9739 9.47094 20.8694 10.0153C20.844 10.1458 20.8198 10.2764 20.7942 10.4068C20.7747 10.5069 20.7654 10.6062 20.6514 10.6349C20.5465 10.651 20.4402 10.6547 20.3345 10.6457H10.6123C10.5599 10.6457 10.3969 10.6105 10.3817 10.6803C10.3534 10.8144 10.3301 10.9495 10.3038 11.0842C10.0943 12.1775 9.88499 13.2708 9.67598 14.364C9.64722 14.5155 9.61514 14.667 9.58893 14.8194C11.8204 14.8194 14.0521 14.8191 16.2841 14.8185H34.2979C34.3985 14.8185 34.5354 14.8454 34.6055 14.7537C34.6655 14.6753 34.668 14.5576 34.6849 14.4644L34.761 14.0429C34.81 13.7692 34.8602 13.4949 34.9089 13.2215C35.05 12.4395 35.18 11.656 35.3288 10.8757C35.3996 10.5023 35.4649 10.1252 35.5493 9.7539C35.5918 9.56792 35.7851 9.60241 35.9339 9.60241C36.1331 9.60086 36.3308 9.60086 36.5285 9.60086Z" fill="#1F1F1F"/>
<path d="M10.6509 5.43039C10.6957 5.19558 10.7481 4.95985 10.781 4.72257C10.7997 4.59127 10.8301 4.40112 10.9957 4.38764C11.1225 4.37762 11.2534 4.38679 11.3801 4.38679C11.458 4.38679 11.5542 4.37932 11.6167 4.43477C11.6946 4.50469 11.664 4.61913 11.6429 4.70648C11.6108 4.84054 11.5896 4.97841 11.5634 5.11401C11.3539 6.20886 11.1446 7.30375 10.9356 8.39869C10.8832 8.67139 10.8308 8.94493 10.7793 9.2177C10.7624 9.30519 10.7226 9.40947 10.7565 9.49704C10.797 9.60287 10.9194 9.60562 11.0158 9.60223C11.5613 9.5829 12.1116 9.60054 12.6583 9.60054H14.7368C14.834 9.60054 14.9464 9.61909 15.0029 9.52137C15.041 9.43396 15.0649 9.34109 15.0738 9.24621C15.1017 9.1051 15.1299 8.96342 15.1583 8.82117C15.5909 6.63723 16.0162 4.45213 16.4341 2.26587C16.5389 1.71968 16.6434 1.17348 16.7476 0.627279C16.7654 0.534709 16.8118 0.412576 16.7789 0.320077C16.7409 0.211562 16.6192 0.206483 16.5221 0.209941C16.2635 0.218196 16.0033 0.211564 15.7447 0.211564C14.6362 0.211564 13.528 0.212433 12.42 0.214174C11.3079 0.21495 10.1962 0.211564 9.08371 0.211564H7.84298C7.70959 0.200409 7.5754 0.202772 7.44249 0.218618C7.40049 0.228234 7.36273 0.251125 7.33487 0.283869C7.307 0.316613 7.29051 0.357455 7.28786 0.400301C7.2625 0.534358 7.23629 0.667991 7.211 0.801766C7.15943 1.07122 7.10794 1.33947 7.05637 1.60893C6.63812 3.79617 6.21987 5.9832 5.80162 8.17002C5.69683 8.71617 5.59235 9.26265 5.48818 9.80946C5.46282 9.93991 5.43859 10.0712 5.41302 10.2015C5.40119 10.2631 5.38937 10.3254 5.37761 10.3868C5.37347 10.4489 5.35771 10.5097 5.33114 10.566C5.27702 10.6477 5.17311 10.6443 5.08612 10.6443C4.96188 10.6443 4.83856 10.6434 4.71439 10.6451C4.63498 10.646 4.54368 10.641 4.49551 10.5668C4.42964 10.4651 4.49976 10.2958 4.52172 10.1873C4.57577 9.91296 4.63066 9.63934 4.68464 9.36495C4.79278 8.8188 4.90092 8.27289 5.00906 7.72721C5.44334 5.53651 5.86239 3.34256 6.28237 1.14834C6.31616 0.973287 6.34909 0.797462 6.38288 0.622412C6.39896 0.537392 6.41582 0.451524 6.4319 0.366504C6.43441 0.302732 6.44434 0.239467 6.46151 0.177979L3.12827 0.203309C2.8579 0.205002 2.58753 0.207543 2.31716 0.209166C2.21771 0.202409 2.11784 0.204958 2.01887 0.216784C1.90058 0.242043 1.87012 0.36058 1.83633 0.46084C1.66484 0.971737 1.4578 1.47402 1.26768 1.97829C1.07506 2.48982 0.882696 3.0018 0.690594 3.51423C0.650856 3.61858 0.724382 3.69428 0.797908 3.75743C0.904159 3.84746 1.00998 3.93749 1.11666 4.02844C1.19189 4.09236 1.32031 4.16391 1.34142 4.26664C1.36423 4.37847 1.31351 4.51485 1.2924 4.62337C1.08287 5.71835 0.873606 6.81329 0.664599 7.90818C0.559859 8.45433 0.455379 9.00027 0.351158 9.546C0.299591 9.81778 0.247647 10.0894 0.195324 10.3607C0.14574 10.6232 0.0804312 10.8842 0.0389934 11.1484C-0.109758 12.1044 0.154807 13.116 0.885672 13.7775C1.59961 14.424 2.58392 14.6756 3.52183 14.7639C4.01441 14.8102 4.51039 14.8153 5.00552 14.816C5.56487 14.8169 6.12391 14.8169 6.68265 14.816H8.36914C8.47564 14.8239 8.58267 14.8208 8.68853 14.8068C8.80682 14.7815 8.8195 14.6831 8.83976 14.5805C8.89295 14.3094 8.94707 14.0393 9.00034 13.7682C9.21756 12.6716 9.43479 11.5753 9.65201 10.4792C9.81927 9.63432 9.98656 8.78933 10.1539 7.9443C10.2384 7.51927 10.3226 7.09457 10.4065 6.6702C10.4868 6.25865 10.5836 5.84618 10.6507 5.43053C10.6879 5.23375 10.6169 5.63684 10.6509 5.43039Z" fill="#1F1F1F"/>
</g>
<defs>
<clipPath id="clip0_523_1555">
<rect width="48" height="14.6441" fill="white" transform="translate(0 0.177979)"/>
</clipPath>
</defs>
</svg>
