<svg width="26" height="26" viewBox="0 0 26 26" fill="none" xmlns="http://www.w3.org/2000/svg">
<path fill-rule="evenodd" clip-rule="evenodd" d="M12.375 0C5.64402 0 0.187515 5.4565 0.187515 12.1875C0.187515 18.9185 5.64402 24.375 12.375 24.375C15.7403 24.375 18.7884 23.0099 20.9929 20.8054C23.1974 18.6009 24.5625 15.5527 24.5625 12.1875C24.5625 5.4565 19.106 0 12.375 0ZM23.0379 21.5246C22.6718 21.1585 22.0783 21.1585 21.7121 21.5246C21.346 21.8907 21.346 22.4843 21.7121 22.8504L24.2121 25.3504C24.5783 25.7165 25.1718 25.7165 25.5379 25.3504C25.904 24.9843 25.904 24.3907 25.5379 24.0246L23.0379 21.5246Z" fill="black"/>
</svg>
