<svg width="160" height="55" viewBox="0 0 160 55" fill="none" xmlns="http://www.w3.org/2000/svg">
<path d="M27.1532 54.7005C42.1495 54.7005 54.3064 42.5436 54.3064 27.5473C54.3064 12.551 42.1495 0.394135 27.1532 0.394135C12.1569 0.394135 0 12.551 0 27.5473C0 42.5436 12.1569 54.7005 27.1532 54.7005Z" fill="black"/>
<path d="M22.5493 12.0508L25.0178 13.8336L24.0774 16.7331C24.0186 16.929 24.0774 17.1445 24.2537 17.262C24.3321 17.3208 24.43 17.36 24.528 17.36C24.626 17.36 24.7239 17.3208 24.8023 17.262L27.2707 15.4792L29.7392 17.262C29.9155 17.3796 30.131 17.3796 30.3074 17.262C30.4837 17.1445 30.5424 16.929 30.4837 16.7331L29.5433 13.8336L32.0118 12.0508C32.1881 11.9332 32.2469 11.7178 32.1881 11.5218C32.1293 11.3259 31.9334 11.1888 31.7375 11.1888H28.7009L27.7605 8.28932C27.7017 8.09341 27.5058 7.95627 27.3099 7.95627C27.0944 7.95627 26.9181 8.09341 26.8593 8.28932L25.919 11.1888H22.8824C22.6669 11.1888 22.4905 11.3259 22.4318 11.5218C22.3142 11.7178 22.373 11.9332 22.5493 12.0508Z" fill="white"/>
<path d="M34.0296 18.2807L36.4981 20.0635L35.5578 22.963C35.499 23.1589 35.5578 23.3744 35.7341 23.492C35.9104 23.6095 36.1259 23.6095 36.3022 23.492L38.7707 21.7092L41.2392 23.492C41.3175 23.5507 41.4155 23.5899 41.5134 23.5899C41.6114 23.5899 41.7093 23.5507 41.7877 23.492C41.964 23.3744 42.0228 23.1589 41.964 22.963L41.0237 20.0635L43.4921 18.2807C43.6684 18.1632 43.7272 17.9477 43.6684 17.7518C43.6097 17.5559 43.4138 17.4187 43.2179 17.4187H40.1812L39.2409 14.5193C39.1821 14.3234 38.9862 14.1862 38.7903 14.1862C38.5748 14.1862 38.3985 14.3234 38.3397 14.5193L37.3993 17.4187H34.3627C34.1472 17.4187 33.9709 17.5559 33.9121 17.7518C33.7946 17.9477 33.8533 18.1632 34.0296 18.2807Z" fill="white"/>
<path d="M10.8339 22.5712L13.3023 24.354L12.362 27.2534C12.3032 27.4493 12.362 27.6649 12.5383 27.7824C12.7146 27.8999 12.9301 27.8999 13.1064 27.7824L15.5749 25.9996L18.0434 27.7824C18.1217 27.8412 18.2197 27.8804 18.3176 27.8804C18.4156 27.8804 18.5135 27.8412 18.5919 27.7824C18.7682 27.6649 18.827 27.4493 18.7682 27.2534L17.8279 24.354L20.2963 22.5712C20.4726 22.4536 20.5314 22.2381 20.4726 22.0422C20.4139 21.8463 20.218 21.7092 20.022 21.7092H16.9854L16.0451 18.8097C15.9863 18.6138 15.7904 18.4767 15.5945 18.4767C15.3986 18.4767 15.2027 18.6138 15.1439 18.8097L14.2035 21.7092H11.1669C10.9514 21.7092 10.7751 21.8463 10.7163 22.0422C10.5988 22.2381 10.6575 22.4536 10.8339 22.5712Z" fill="white"/>
<path d="M19.5323 28.9774H11.5783C11.0689 28.9774 10.6379 29.4085 10.6379 29.9178V41.0455C10.6379 41.5549 11.0689 41.9859 11.5783 41.9859H19.5323C20.0416 41.9859 20.4726 41.5549 20.4726 41.0455V29.9178C20.4726 29.3889 20.0416 28.9774 19.5323 28.9774Z" fill="white"/>
<path d="M31.2477 18.4767H23.2938C22.7844 18.4767 22.3534 18.9077 22.3534 19.417V41.0259C22.3534 41.5353 22.7844 41.9663 23.2938 41.9663H31.2477C31.7571 41.9663 32.1881 41.5353 32.1881 41.0259V19.417C32.1881 18.9077 31.7571 18.4767 31.2477 18.4767Z" fill="white"/>
<path d="M42.7281 24.3736H34.7741C34.2647 24.3736 33.8337 24.8046 33.8337 25.3139V41.0455C33.8337 41.5549 34.2647 41.9859 34.7741 41.9859H42.7281C43.2374 41.9859 43.6684 41.5549 43.6684 41.0455V25.3139C43.6684 24.8046 43.2374 24.3736 42.7281 24.3736Z" fill="white"/>
<path d="M74.8573 21.2586C74.8182 23.4332 74.0541 24.7066 72.526 25.0984C72.7415 24.6087 72.8395 24.1189 72.8395 23.6291C72.8395 23.0806 72.6436 22.6104 72.2909 22.2381C71.8991 21.8659 71.2526 21.7092 70.3122 21.7092V33.934C70.3122 34.3062 70.5081 34.7176 70.8608 35.1878C70.8804 35.2074 70.9 35.2662 70.9 35.3445C70.9 35.4229 70.8804 35.4817 70.8412 35.5405C70.7824 35.5992 70.704 35.6188 70.6453 35.6188H65.4732C65.4145 35.6188 65.3361 35.5992 65.2969 35.5405C65.2381 35.5013 65.2186 35.4425 65.2186 35.3641C65.2186 35.3054 65.2381 35.227 65.2773 35.1878C65.6496 34.7372 65.8063 34.3258 65.8063 33.934L65.8259 21.7092C64.8267 21.7092 64.141 21.8855 63.7296 22.2381C63.3182 22.5908 63.1027 23.0414 63.1027 23.5899C63.1027 23.9034 63.1615 24.2364 63.279 24.5303C63.377 24.8438 63.4945 25.0397 63.5729 25.0984C62.1036 24.7066 61.3395 23.4332 61.2416 21.2586C61.2416 21.0627 61.3003 20.8864 61.4571 20.7492C61.5942 20.6121 61.7314 20.5533 61.9273 20.5533H74.1717C74.3676 20.5533 74.5047 20.6121 74.6614 20.7492C74.8182 20.906 74.8965 21.0627 74.8573 21.2586Z" fill="black"/>
<path d="M90.0012 24.1385C90.5694 25.2944 90.8632 26.5482 90.8632 27.9392C90.8632 29.5848 90.5302 31.015 89.8641 32.2296C89.198 33.4638 88.2576 34.4238 87.0626 35.0899C85.8675 35.756 84.4962 36.089 82.968 36.089C82.0473 36.0498 81.2636 35.8539 80.6367 35.5405C80.0098 35.227 79.5396 34.8352 79.2458 34.3846C78.9519 33.934 78.7952 33.5226 78.7756 33.1308C78.7756 32.3275 79.0498 31.6027 79.6376 30.9758C80.1861 30.3489 80.8718 29.9962 81.7142 29.8787C81.773 29.8591 81.8905 29.8591 82.0277 29.8591C82.537 29.8591 82.9876 30.0158 83.3795 30.2901C83.7713 30.5839 83.9672 30.9758 84.0456 31.4655V31.4851C84.0456 31.5439 84.026 31.5831 83.9868 31.6223C83.928 31.6419 83.8888 31.6419 83.8301 31.6027C83.5558 31.3872 83.2815 31.2892 83.0072 31.2892C82.6154 31.2892 82.3215 31.4851 82.0865 31.8378C81.8514 32.21 81.7534 32.6018 81.7534 33.0132C81.7534 33.5422 81.9101 33.9536 82.204 34.2279C82.4783 34.5021 82.8505 34.6589 83.2619 34.6589C83.7125 34.6589 84.1435 34.5022 84.5353 34.1887C84.9467 33.8752 85.221 33.4246 85.3973 32.8369C85.7108 31.7398 85.8871 30.3293 85.8871 28.5661C85.8871 26.4111 85.6716 24.7066 85.221 23.4528C84.7704 22.199 84.0456 21.5525 83.0856 21.5525C82.1452 21.5525 81.4791 22.1794 81.1069 23.394C80.7347 24.6087 80.5388 26.1172 80.5388 27.9392C80.5388 28.2722 80.5583 28.762 80.5779 29.4281C79.9118 29.624 79.3437 29.9962 78.8735 30.5644C78.4033 31.1325 78.1682 31.8574 78.1682 32.7585C78.1682 32.9153 78.1878 33.2091 78.2466 33.6401V33.6597C78.2466 33.7185 78.227 33.7969 78.1682 33.8165C78.1095 33.8361 78.0311 33.8361 77.9723 33.7773C77.3258 33.1308 76.7969 32.3276 76.3855 31.348C75.974 30.3684 75.7585 29.3497 75.7585 28.2722C75.7585 26.6266 76.072 25.216 76.6989 24.0601C77.3258 22.8847 78.2074 21.9639 79.3633 21.3566C80.4996 20.7297 81.8318 20.4358 83.399 20.4358C84.9859 20.4358 86.3377 20.7688 87.474 21.4545C88.5907 22.101 89.4331 23.0022 90.0012 24.1385Z" fill="black"/>
<path d="M102.363 29.9766C101.482 30.4664 100.443 30.7015 99.2678 30.7015C98.5429 30.7015 97.7592 30.6035 96.8776 30.4076V33.934C96.8776 34.3454 97.054 34.7372 97.4066 35.1878C97.4458 35.227 97.4654 35.2858 97.4654 35.3642C97.4654 35.4229 97.4458 35.5013 97.4066 35.5405C97.3478 35.5992 97.2695 35.6188 97.1911 35.6188H92.0387C91.9799 35.6188 91.9015 35.5992 91.8623 35.5405C91.8036 35.5013 91.784 35.4425 91.784 35.3642C91.784 35.3054 91.8036 35.227 91.8428 35.1878C92.215 34.7372 92.3717 34.3258 92.3717 33.934V22.9434C92.3717 22.532 92.1758 22.199 91.784 21.8855C91.7056 21.8267 91.6469 21.7288 91.6469 21.6308C91.6469 21.5721 91.6664 21.4937 91.7056 21.4349C91.7448 21.3957 91.8036 21.3762 91.8819 21.3762C92.4305 21.3762 92.9986 21.3174 93.5668 21.1606C94.1153 21.0235 94.7814 20.8472 95.5651 20.6121C96.0352 20.4554 96.3487 20.3574 96.525 20.3182C97.485 20.0048 98.4449 19.8285 99.3657 19.8285C100.404 19.8285 101.364 20.044 102.206 20.4554C103.029 20.8864 103.676 21.4545 104.166 22.1794C104.655 22.9043 104.91 23.7075 104.949 24.6283C105.008 25.8821 104.792 26.9792 104.361 27.9C103.93 28.7816 103.245 29.4868 102.363 29.9766ZM97.6613 29.4868C98.347 29.4868 98.9347 29.2126 99.4833 28.6836C100.012 28.1546 100.267 27.1751 100.267 25.745C100.267 24.1973 100.032 23.0806 99.5812 22.4145C99.111 21.768 98.5625 21.4545 97.916 21.4545C97.5046 21.4545 97.1715 21.5329 96.8972 21.7092V29.3889C96.956 29.4085 97.054 29.4281 97.1911 29.4477C97.3478 29.4673 97.485 29.4868 97.6613 29.4868Z" fill="black"/>
<path d="M123.835 34.032C123.678 34.6001 123.502 35.1291 123.267 35.6188H112.629C112.57 35.6188 112.492 35.5993 112.453 35.5405C112.394 35.5013 112.374 35.4425 112.374 35.3642C112.374 35.3054 112.394 35.227 112.433 35.1878C112.805 34.7372 112.962 34.3258 112.962 33.934V23.0218C112.962 22.6104 112.766 22.2773 112.374 21.9639C112.296 21.9051 112.237 21.8072 112.237 21.7092C112.237 21.6504 112.257 21.5721 112.296 21.5133C112.335 21.4741 112.394 21.4545 112.472 21.4545C113.687 21.4545 114.647 21.3566 115.372 21.1411C116.096 20.9256 116.625 20.7101 116.958 20.475C117.017 20.4358 117.096 20.4162 117.154 20.4162C117.233 20.4162 117.311 20.4358 117.37 20.4946C117.429 20.5533 117.448 20.6317 117.468 20.7101L117.448 34.1495C117.448 34.2279 117.585 34.3062 117.801 34.365C118.036 34.4238 118.33 34.463 118.683 34.463C119.309 34.463 119.936 34.3258 120.583 34.0907C121.21 33.8557 121.758 33.4247 122.248 32.8173C122.738 32.1904 123.012 31.3872 123.11 30.3684C123.776 30.7799 124.09 31.4851 124.09 32.4647C124.07 32.9349 123.992 33.4638 123.835 34.032Z" fill="black"/>
<path d="M130.672 35.5209C130.613 35.5797 130.535 35.5992 130.476 35.5992H125.324C125.265 35.5992 125.187 35.5797 125.148 35.5209C125.089 35.4817 125.069 35.4229 125.069 35.3446C125.069 35.2858 125.089 35.2074 125.128 35.1683C125.5 34.6785 125.657 34.2671 125.657 33.9144V23.0022C125.657 22.5908 125.461 22.2578 125.069 21.9443C124.991 21.8855 124.932 21.7876 124.932 21.6896C124.932 21.6308 124.952 21.5525 124.991 21.4937C125.03 21.4545 125.089 21.4349 125.167 21.4349C126.382 21.4349 127.342 21.337 128.086 21.1019C128.811 20.8864 129.32 20.6709 129.634 20.4554C129.693 20.4162 129.771 20.3966 129.83 20.3966C129.889 20.3966 129.987 20.4162 130.045 20.475C130.104 20.5337 130.124 20.6121 130.143 20.6905L130.124 26.7049L130.143 33.934C130.124 34.3062 130.3 34.6981 130.653 35.1878C130.692 35.227 130.711 35.2858 130.711 35.3642C130.731 35.4229 130.711 35.4817 130.672 35.5209Z" fill="black"/>
<path d="M147.618 35.5405C147.579 35.5797 147.54 35.5993 147.462 35.6188C146.698 35.7168 146.032 35.7756 145.503 35.7756C144.347 35.7756 143.269 35.5797 142.231 35.227C141.193 34.8744 140.389 34.2083 139.821 33.2679L137.607 29.4085L137.627 33.934C137.607 34.3062 137.784 34.6981 138.136 35.1878C138.176 35.227 138.195 35.2858 138.195 35.3642C138.195 35.4229 138.176 35.5013 138.136 35.5405C138.078 35.5992 137.999 35.6188 137.941 35.6188H132.788C132.729 35.6188 132.651 35.5992 132.612 35.5405C132.553 35.5013 132.533 35.4425 132.533 35.3642C132.533 35.3054 132.553 35.227 132.592 35.1878C132.964 34.6981 133.121 34.2866 133.121 33.934V23.0218C133.121 22.6104 132.925 22.2773 132.533 21.9639C132.455 21.9051 132.396 21.8072 132.396 21.7092C132.396 21.6504 132.416 21.5721 132.455 21.5133C132.494 21.4741 132.553 21.4545 132.631 21.4545C133.846 21.4545 134.806 21.3566 135.55 21.1215C136.275 20.906 136.785 20.6905 137.098 20.475C137.157 20.4358 137.235 20.4162 137.294 20.4162C137.353 20.4162 137.451 20.4358 137.509 20.4946C137.568 20.5533 137.588 20.6317 137.607 20.7101C137.588 20.7101 137.588 23.1981 137.588 28.1743L142.035 23.5508C142.662 22.9239 142.975 22.3361 142.975 21.8072C142.975 21.6113 142.936 21.4741 142.877 21.3174C142.858 21.2978 142.858 21.2586 142.858 21.2194C142.858 21.1607 142.877 21.0823 142.936 21.0235C142.975 20.9647 143.034 20.9452 143.132 20.9452H145.64C145.738 20.9452 145.836 20.9843 145.894 21.0431C145.953 21.1215 145.973 21.2194 145.973 21.2978C145.973 21.3958 145.953 21.4741 145.894 21.5329L141.075 26.5482L144.503 32.0925C145.64 33.7381 146.639 34.796 147.56 35.2858C147.618 35.325 147.658 35.3642 147.658 35.4425C147.658 35.4621 147.638 35.5013 147.618 35.5405Z" fill="black"/>
<path d="M159.745 34.7568C159.647 35.0703 159.491 35.3837 159.334 35.6188H148.892C148.833 35.6188 148.755 35.5992 148.716 35.5405C148.657 35.5013 148.637 35.4425 148.637 35.3642C148.637 35.3054 148.657 35.227 148.696 35.1878C149.068 34.7372 149.225 34.3258 149.225 33.934V22.4928C149.205 22.1206 149.009 21.7876 148.637 21.4741C148.559 21.4153 148.5 21.3174 148.5 21.239C148.5 21.1802 148.52 21.1019 148.559 21.0431C148.598 21.0039 148.657 20.9843 148.735 20.9843C149.891 21.0039 151.36 20.8472 153.143 20.5729C154.319 20.3574 155.357 20.2595 156.297 20.2595C157.923 20.2595 159.04 20.5925 159.667 21.2586C159.902 21.4937 160 21.8267 160 22.2382C160 22.6104 159.922 22.9826 159.726 23.3548C159.53 23.7271 159.256 24.0405 158.903 24.2756C158.531 24.5107 158.119 24.6479 157.669 24.6674C157.708 23.4528 157.414 22.5908 156.787 22.101C156.16 21.6308 155.416 21.3957 154.593 21.3957C154.279 21.3957 153.966 21.4153 153.711 21.4741L153.692 27.1751H155.161C155.67 27.1751 156.199 27.0184 156.748 26.7441C156.807 26.7049 156.905 26.6853 156.963 26.6853C157.101 26.6853 157.198 26.7245 157.296 26.8421C157.394 26.9596 157.453 27.0576 157.453 27.2143V28.3506C157.453 28.5073 157.414 28.6052 157.296 28.7032C157.198 28.8012 157.081 28.8599 156.963 28.8599C156.885 28.8599 156.807 28.8403 156.748 28.8012C156.317 28.5857 155.788 28.4877 155.161 28.4877H153.692V34.1103C154.025 34.2083 154.358 34.2867 154.671 34.2867C155.22 34.2867 155.768 34.1495 156.297 33.8752C156.826 33.6205 157.257 33.2483 157.61 32.8173C157.982 32.3667 158.178 31.8574 158.256 31.3088C159.354 31.9749 159.902 32.8173 159.902 33.8556C159.922 34.1299 159.863 34.4434 159.745 34.7568Z" fill="black"/>
</svg>
