<svg width="66" height="96" viewBox="0 0 66 96" fill="none" xmlns="http://www.w3.org/2000/svg">
<path d="M-73.4211 58.7812L-37.7971 84.375L-51.3682 126C-52.2164 128.812 -51.3681 131.906 -48.8236 133.594C-46.279 135.281 -43.169 135.281 -40.6244 133.594L-5.00047 108L30.6234 133.594C31.7543 134.438 33.168 135 34.5817 135C35.9953 135 37.409 134.438 38.5399 133.594C41.0844 131.906 41.9326 128.812 41.0844 126L27.5134 84.375L63.1373 58.7812C65.6819 57.0937 66.5301 53.9999 65.6819 51.1874C64.8337 48.3749 62.0064 46.4062 59.1791 46.4062H15.356L1.78502 4.7812C0.936829 1.9687 -1.89047 0 -4.71777 0C-7.54507 0 -10.3724 1.9687 -11.2206 4.7812L-24.7915 46.4062H-68.6146C-71.7247 46.4062 -74.2692 48.3749 -75.1174 51.1874C-76.8138 53.9999 -75.9657 57.0937 -73.4211 58.7812Z" fill="white" fill-opacity="0.08"/>
</svg>
