<svg width="28" height="27" viewBox="0 0 28 27" fill="none" xmlns="http://www.w3.org/2000/svg">
<path fill-rule="evenodd" clip-rule="evenodd" d="M3.975 0.68125C5.312 7.45058e-08 7.06213 0 10.5625 0H17.4375C20.9379 0 22.688 7.45058e-08 24.025 0.68125C25.201 1.28038 26.1571 2.2365 26.7563 3.4125C27.4375 4.7495 27.4375 6.49963 27.4375 10V16.875C27.4375 20.3754 27.4375 22.1255 26.7563 23.4625C26.1571 24.6385 25.201 25.5946 24.025 26.1938C22.688 26.875 20.9379 26.875 17.4375 26.875H10.5625C7.06213 26.875 5.312 26.875 3.975 26.1938C2.799 25.5946 1.84288 24.6385 1.24375 23.4625C0.5625 22.1255 0.5625 20.3754 0.5625 16.875V10C0.5625 6.49963 0.5625 4.7495 1.24375 3.4125C1.84288 2.2365 2.799 1.28038 3.975 0.68125ZM16.5 5C15.9823 5 15.5625 5.41975 15.5625 5.9375C15.5625 6.45525 15.9823 6.875 16.5 6.875H19.2366L17.9204 8.19125L15.8371 10.2746C15.471 10.6407 15.471 11.2343 15.8371 11.6004C16.2032 11.9665 16.7968 11.9665 17.1629 11.6004L19.2462 9.51713L20.5625 8.20087V10.9375C20.5625 11.4552 20.9823 11.875 21.5 11.875C22.0177 11.875 22.4375 11.4552 22.4375 10.9375V5.9375C22.4375 5.41975 22.0177 5 21.5 5H16.5ZM7.4375 15.9375C7.4375 15.4198 7.01775 15 6.5 15C5.98225 15 5.5625 15.4198 5.5625 15.9375V20.9375C5.5625 21.4552 5.98225 21.875 6.5 21.875H11.5C12.0177 21.875 12.4375 21.4552 12.4375 20.9375C12.4375 20.4198 12.0177 20 11.5 20H8.76337L10.0796 18.6837L12.1629 16.6004C12.529 16.2343 12.529 15.6407 12.1629 15.2746C11.7968 14.9085 11.2032 14.9085 10.8371 15.2746L8.75375 17.3579L7.4375 18.6741V15.9375Z" fill="black"/>
</svg>
